# xmcd CD database file
#
# Track frame offsets:
#	150
#	16125
#	31275
#	47325
#	65925
#	83400
#	99975
#	116925
#	140625
#	156150
#	179850
#	194025
#	214200
#	234675
#	251325
#	263175
#
# Disc length: 3748 seconds
#
# Revision: 0
# Processed by: cddbd v1.5.2PL0 Copyright (c) Steve Scherf et al.
# Submitted via: CDex 1.60beta1-cs1
#
DISCID=e90ea210
DTITLE=Juanita Lucas - Country Tapestry
DYEAR=2008
DGENRE=Country
TTITLE0=Tapestry of Love
TTITLE1=Memories of You
TTITLE2=One Good Thing
TTITLE3=Dignity and Prode
TTITLE4=Gilt-Edged Proposition
TTITLE5=One Hundred Years Old
TTITLE6=Who's the Fool
TTITLE7=Clean Slate
TTITLE8=Ain't Goin' Anywhere
TTITLE9=The Only Boy
TTITLE10=Half a Chance
TTITLE11=Best Part of My Day
TTITLE12=Rain on My Parade
TTITLE13=Old Black Phone
TTITLE14=Paddocks in the Sky
TTITLE15=No Applause
EXTD=YEAR: 2008
EXTT0=
EXTT1=
EXTT2=
EXTT3=
EXTT4=
EXTT5=
EXTT6=
EXTT7=
EXTT8=
EXTT9=
EXTT10=
EXTT11=
EXTT12=
EXTT13=
EXTT14=
EXTT15=
PLAYORDER=
